<svg width="512" height="512" viewBox="0 0 512 512" xmlns="http://www.w3.org/2000/svg">
  <!-- Background -->
  <rect width="512" height="512" rx="80" ry="80" fill="#3B82F6"/>
  
  <!-- AI WebGen Icon -->
  <g transform="translate(128, 128)">
    <!-- Robot/AI Head -->
    <rect x="64" y="32" width="128" height="96" rx="16" fill="white" opacity="0.95"/>
    
    <!-- Eyes -->
    <circle cx="96" cy="64" r="8" fill="#3B82F6"/>
    <circle cx="160" cy="64" r="8" fill="#3B82F6"/>
    
    <!-- Smile/Mouth -->
    <path d="M 96 96 Q 128 112 160 96" stroke="#3B82F6" stroke-width="4" fill="none" stroke-linecap="round"/>
    
    <!-- Web/Code Symbol -->
    <g transform="translate(0, 140)">
      <!-- Browser Window -->
      <rect x="32" width="192" height="120" rx="8" fill="white" opacity="0.9"/>
      <rect x="32" width="192" height="24" rx="8" fill="#e5e7eb"/>
      
      <!-- Browser Dots -->
      <circle cx="48" cy="12" r="4" fill="#ef4444"/>
      <circle cx="64" cy="12" r="4" fill="#f59e0b"/>
      <circle cx="80" cy="12" r="4" fill="#10b981"/>
      
      <!-- Code Lines -->
      <rect x="48" y="40" width="80" height="4" rx="2" fill="#3B82F6" opacity="0.7"/>
      <rect x="48" y="56" width="120" height="4" rx="2" fill="#3B82F6" opacity="0.5"/>
      <rect x="48" y="72" width="96" height="4" rx="2" fill="#3B82F6" opacity="0.7"/>
      <rect x="48" y="88" width="64" height="4" rx="2" fill="#3B82F6" opacity="0.5"/>
    </g>
    
    <!-- Sparkles/AI Magic -->
    <g fill="white" opacity="0.8">
      <path d="M 32 32 L 36 40 L 44 36 L 36 32 L 32 36 Z"/>
      <path d="M 220 48 L 224 56 L 232 52 L 224 48 L 220 52 Z"/>
      <path d="M 240 128 L 244 136 L 252 132 L 244 128 L 240 132 Z"/>
      <path d="M 16 160 L 20 168 L 28 164 L 20 160 L 16 164 Z"/>
    </g>
  </g>
</svg>